# xmcd
#
# Track frame offsets: 
#        150
#        2195
#        9024
#        20909
#        36922
#        47554
#        62572
#        75354
#        90519
#        102898
#        114864
#        125011
#        135266
#        150524
#        163729
#        172759
#
# Disc length: 2435 seconds
#
# Revision: 1
# Processed by: cddbd v1.5.2PL0 Copyright (c) Steve Scherf et al.
# Submitted via: ExactAudioCopy v0.95b3
#
DISCID=ad098110
DTITLE=Various Artist - V hospode 4
DYEAR=2002
DGENRE=Country
TTITLE0=Rum nam davej
TTITLE1=Whisky, to je moje gusto
TTITLE2=Vodnik
TTITLE3=Bila Kanada
TTITLE4=Do Ameriky
TTITLE5=Cabaleri, Zapad hori
TTITLE6=Ruze
TTITLE7=Nevada
TTITLE8=Horici prerie
TTITLE9=Sesla se ta stara parta
TTITLE10=Svatojanska muska
TTITLE11=Po kolena v bahne
TTITLE12=Uz nas taborak vola
TTITLE13=Kdyz clovek prichazi do let
TTITLE14=At zije kapitan
TTITLE15=Flamendr
EXTD=
EXTT0=
EXTT1=
EXTT2=
EXTT3=
EXTT4=
EXTT5=
EXTT6=
EXTT7=
EXTT8=
EXTT9=
EXTT10=
EXTT11=
EXTT12=
EXTT13=
EXTT14=
EXTT15=
PLAYORDER=
